<?xml version="1.0" encoding="UTF-8"?>
<svg version="1.1" id="Layer_1" xmlns="http://www.w3.org/2000/svg" xmlns:xlink="http://www.w3.org/1999/xlink" x="0px" y="0px" viewBox="0 0 51.1 51.1" style="enable-background:new 0 0 51.1 51.1;" xml:space="preserve"><style type="text/css">.st0{fill:#747474;stroke:#747474;stroke-width:2;stroke-miterlimit:10;}</style><title>Icon_Search</title><desc>Created with Sketch.</desc><g id="Symbols"><g id="Icon_Search"><path id="Combined-Shape" class="st0" d="M31.8,30.9c0.1,0,0.2,0.1,0.3,0.2l17.8,17.8c0.3,0.3,0.3,0.8,0,1.1c-0.3,0.3-0.8,0.3-1.1,0L31,32.1c-0.1-0.1-0.1-0.2-0.2-0.3c-3.2,2.9-7.4,4.7-12.1,4.7C9,36.6,1,28.6,1,18.8C1,9,9,1,18.8,1s17.8,8,17.8,17.8C36.6,23.5,34.8,27.7,31.8,30.9z M35.1,18.8c0-9-7.3-16.3-16.3-16.3S2.5,9.8,2.5,18.8c0,9,7.3,16.3,16.3,16.3S35.1,27.8,35.1,18.8z"/></g></g></svg>